<?xml version="1.0" encoding="UTF-8"?><svg xmlns="http://www.w3.org/2000/svg" viewBox="0 0 28.73 23.41"><defs><style>.d{fill:#00b400;}</style></defs><g id="a"/><g id="b"><g id="c"><g><path class="d" d="M22.88,8.37c1.64,4.85-.5,11.25-6.2,13.93-5.4,2.54-12.08,.66-15.21-4.97C-1.39,12.17-.06,5.58,5.22,1.98,10.32-1.51,17.11-.09,20.56,4.17l-1.72,1.48c-.38-.35-.74-.69-1.12-1.02-3.66-3.11-9.08-2.92-12.52,.44-3.43,3.34-3.78,8.86-.71,12.55,2.29,2.75,5.29,3.91,8.83,3.28,3.8-.68,6.26-3,7.41-6.67,.38-1.2,.46-2.46,.24-3.71-.05-.31,.02-.51,.27-.71,.56-.45,1.09-.94,1.65-1.44Z"/><path class="d" d="M26.82,0l1.92,2.24L12.37,16.27l-5.11-6.39,2.35-1.87,3.18,4.02L26.82,0Z"/></g></g></g></svg>