<?xml version="1.0" encoding="UTF-8"?><svg xmlns="http://www.w3.org/2000/svg" viewBox="0 0 23.41 23.41"><defs><style>.d{fill:#d30000;}</style></defs><g id="a"/><g id="b"><g id="c"><g><path class="d" d="M23.41,11.7c0,6.47-5.21,11.7-11.69,11.71C5.24,23.43,0,18.18,0,11.7,0,5.22,5.24,0,11.71,0c6.48,0,11.7,5.22,11.7,11.7Zm-2.34,0c-.03-5.18-4.22-9.37-9.37-9.35-5.17,.01-9.37,4.2-9.36,9.37,0,5.22,4.21,9.38,9.38,9.36,5.21-.02,9.37-4.22,9.35-9.37Z"/><path class="d" d="M11.72,13.33c-.91,.91-1.75,1.77-2.61,2.62-.15,.15-.34,.29-.53,.36-.51,.19-1.09,0-1.36-.43-.31-.49-.26-1.09,.15-1.5,.8-.81,1.61-1.61,2.41-2.41,.08-.08,.17-.14,.28-.22-.11-.12-.18-.2-.25-.27-.81-.81-1.63-1.62-2.43-2.44-.34-.35-.44-.76-.29-1.23,.15-.45,.48-.7,.93-.77,.41-.07,.76,.07,1.05,.36,.8,.8,1.59,1.6,2.39,2.39,.08,.08,.16,.15,.25,.23,.09-.09,.17-.16,.25-.23,.82-.82,1.63-1.64,2.46-2.45,.34-.33,.76-.41,1.21-.25,.44,.16,.69,.49,.76,.94,.06,.42-.11,.77-.4,1.07-.79,.78-1.57,1.57-2.35,2.35-.08,.08-.18,.12-.29,.2,.13,.14,.2,.22,.28,.3,.81,.81,1.63,1.61,2.43,2.44,.62,.64,.38,1.67-.43,1.94-.5,.17-.93,.02-1.3-.34-.78-.78-1.57-1.57-2.35-2.35-.08-.08-.14-.17-.24-.29Z"/></g></g></g></svg>