<?xml version="1.0" encoding="utf-8"?>
<!-- Generator: Adobe Illustrator 25.0.0, SVG Export Plug-In . SVG Version: 6.00 Build 0)  -->
<svg version="1.1" id="katman_1" xmlns="http://www.w3.org/2000/svg" xmlns:xlink="http://www.w3.org/1999/xlink" x="0px" y="0px"
	 viewBox="0 0 560 400" style="enable-background:new 0 0 560 400;" xml:space="preserve">
<style type="text/css">
	.st0{fill-rule:evenodd;clip-rule:evenodd;fill:#000099;}
	.st1{fill-rule:evenodd;clip-rule:evenodd;fill:#FFFFFF;}
</style>
<path class="st0" d="M46,101.3h468v197.3H46L46,101.3z"/>
<path class="st1" d="M263.3,242c0-0.3-0.2-0.4-0.4-0.1c-2.5,5.4-7,7.8-11.6,7.8c-8.3,0-15.8-7-15.8-18.2c0-11.1,7.5-18.2,15.8-18.2
	c4.6,0,9,2.4,11.6,7.8c0.2,0.3,0.4,0.2,0.4-0.1v-6.7h9V247c0,9.6-6.7,17.1-18.2,17.1c-6.4,0-12-2.2-16.1-6.1l5.4-5.8
	c3.6,2.8,6.4,4.3,10.6,4.3c6.6,0,9.3-4.6,9.3-10.4L263.3,242L263.3,242z M192.9,263.3h-1v-5.2h1.6l0.9,3.5l0.9-3.5h1.6v5.2h-1v-4.1
	l-1,4.1h-1l-1-4.1V263.3z M189.8,263.3h-1V259h-1.5v-0.9h4.1v0.9h-1.5V263.3z M383,263.3h-9v-48.9h9v6.7c0,0.3,0.2,0.4,0.4,0.1v0
	c2.5-5.4,7.1-7.8,11.7-7.8c8.4,0,16,7.1,16,18.3c0,11.2-7.6,18.3-16,18.3c-4.6,0-9.2-2.4-11.7-7.8c-0.1-0.3-0.4-0.2-0.4,0.1V263.3
	L383,263.3z M204.2,219.9h-70.1v-6.9l24.7-0.8c12.5-0.5,18.1-6.9,18.1-16.8c0-12.2-11.2-29.8-32.9-29.8c-19.6,0-32.9,16.8-32.9,34.1
	c0,20.6,14.3,35.4,38.7,35.4h46.4c-11,17.1-30.1,28-52,28c-34.7,0-62.7-28.3-62.7-62.9s28-62.9,62.7-62.9
	c34.7,0,62.9,28.3,62.9,62.9C207.2,207.2,206,213.8,204.2,219.9L204.2,219.9z M353.3,250.1c-8.7,0-14.3-5.3-14.3-13.1v-22.7h9v22
	c0,3.4,2.2,5.7,5.6,5.7c3.1,0,5.4-2.3,5.4-5.6v-22.1h9v22.7C367.9,244.8,361.8,250.1,353.3,250.1L353.3,250.1z M316.3,213.2
	c10.1,0,18.4,8.3,18.4,18.5c0,10.2-8.3,18.5-18.4,18.5c-10.2,0-18.5-8.3-18.5-18.5C297.8,221.5,306.1,213.2,316.3,213.2z M287.7,249
	h-9v-34.7h9v7.5c0,0.2,0.1,0.2,0.2,0c1.2-6.2,3.9-8.5,8.5-8.5h0.8v9.4h-4c-3.7,0-5.5,2.8-5.5,6.9V249L287.7,249z M392.7,242.6
	c5.2,0,9.8-4.6,9.8-10.9s-4.6-10.9-9.8-10.9c-5.2,0-9.8,4.6-9.8,10.9S387.5,242.6,392.7,242.6z M253.9,220.8
	c-5.2,0-9.6,4.5-9.6,10.8c0,6.3,4.5,10.8,9.6,10.8c5.1,0,9.6-4.5,9.6-10.8C263.5,225.3,258.9,220.8,253.9,220.8z M316.2,221.4
	c-5.4,0-9.8,4.5-9.8,10.3c0,5.8,4.4,10.3,9.8,10.3c5.4,0,9.8-4.5,9.8-10.3C326,225.9,321.6,221.4,316.2,221.4z M418.8,219.5h-1v-4.3
	h-1.5v-0.9h4.1v0.9h-1.5V219.5z M422,219.5h-1v-5.2h1.6l0.9,3.5l0.9-3.5h1.6v5.2h-1v-4.1l-1,4.1h-1l-1-4.1L422,219.5L422,219.5z
	 M312.6,201.6h-9v-48.9h9v6.7c0,0.3,0.2,0.4,0.4,0.1v0c2.5-5.4,7.1-7.8,11.7-7.8c8.4,0,16,7.1,16,18.3c0,11.2-7.6,18.3-16,18.3
	c-4.6,0-9.2-2.4-11.7-7.8c-0.1-0.3-0.4-0.2-0.4,0.1V201.6L312.6,201.6z M379.6,175.8H359v-2l7.2-0.2c3.7-0.1,5.3-2,5.3-4.9
	c0-3.6-3.3-8.7-9.6-8.7c-5.8,0-9.6,4.9-9.6,10c0,6.1,4.2,10.4,11.4,10.4h13.6c-3.2,5-8.8,8.2-15.2,8.2c-10.2,0-18.4-8.3-18.4-18.5
	c0-10.2,8.2-18.5,18.4-18.5c10.2,0,18.5,8.3,18.5,18.5C380.5,172,380.1,174,379.6,175.8L379.6,175.8z M266.1,180.3
	c-3.2,5-8.8,8.2-15.2,8.2c-10.2,0-18.4-8.3-18.4-18.5c0-10.2,8.2-18.5,18.4-18.5c10.2,0,18.5,8.3,18.5,18.5c0,2-0.4,4-0.9,5.8h-20.6
	v-2l7.2-0.2c3.7-0.1,5.3-2,5.3-4.9c0-3.6-3.3-8.7-9.6-8.7c-5.8,0-9.6,4.9-9.6,10c0,6.1,4.2,10.4,11.4,10.4L266.1,180.3L266.1,180.3z
	 M477.4,187.4h-9v-6.7c0-0.3-0.2-0.4-0.4-0.1v0c-2.5,5.4-7.1,7.8-11.7,7.8c-8.4,0-16-7.1-16-18.3c0-11.2,7.6-18.3,16-18.3
	c4.6,0,9.2,2.4,11.7,7.8c0.1,0.3,0.4,0.2,0.4-0.1v-6.7h9V187.4z M420.4,187.4h-9v-6.7c0-0.3-0.2-0.4-0.4-0.1v0
	c-2.5,5.4-7.1,7.8-11.7,7.8c-8.4,0-16-7.1-16-18.3c0-11.2,7.6-18.3,16-18.3c4.6,0,9.2,2.4,11.7,7.8c0.1,0.3,0.4,0.2,0.4-0.1v-21.7h9
	V187.4z M276.5,187.4h-9.7l12.7-17.6l-12.3-17.1h10.3l7.1,10.3l7-10.3h9.7l-12,16.7l12.9,18H292l-7.7-11.2L276.5,187.4z
	 M435.8,187.4h-9v-34.7h9V187.4z M322.3,180.9c5.2,0,9.8-4.6,9.8-10.9c0-6.4-4.6-10.9-9.8-10.9c-5.2,0-9.8,4.6-9.8,10.9
	C312.5,176.4,317.1,180.9,322.3,180.9z M458.8,159.1c-5.2,0-9.8,4.6-9.8,10.9c0,6.4,4.6,10.9,9.8,10.9c5.2,0,9.8-4.6,9.8-10.9
	C468.6,163.7,463.9,159.1,458.8,159.1z M401.8,159.1c-5.2,0-9.8,4.6-9.8,10.9c0,6.4,4.6,10.9,9.8,10.9c5.2,0,9.8-4.6,9.8-10.9
	C411.6,163.7,407,159.1,401.8,159.1z M426.1,142.6c0-2.8,2.4-5.2,5.2-5.2c2.8,0,5.2,2.4,5.2,5.2c0,2.8-2.4,5.2-5.2,5.2
	C428.5,147.8,426.1,145.4,426.1,142.6z"/>
</svg>
